<svg id="Layer_5" enable-background="new 0 0 64 64" height="512" viewBox="0 0 64 64" width="512" xmlns="http://www.w3.org/2000/svg" style="fill:white">
}<path d="m34.585 23h-31.585v6h25.585zm-27.585 4h-2v-2h2zm4 0h-2v-2h2zm4 0h-2v-2h2z"/><path d="m30.541 37.044 2.045-2.044-3.586-3.586-2.045 2.045c1.632.651 2.934 1.953 3.586 3.585z"/><path d="m20.232 38.688-1.016 6.096 6.096-1.016c2.137-.356 3.688-2.187 3.688-4.354 0-2.434-1.98-4.414-4.414-4.414-2.166 0-3.997 1.551-4.354 3.688z"/><path d="m48.878 11.464h2.243v5.071h-2.243z" transform="matrix(.707 -.707 .707 .707 4.745 39.456)"/><path d="m60.257 7.328c.479-.479.743-1.116.743-1.793 0-1.397-1.138-2.535-2.536-2.535-.678 0-1.314.264-1.793.742l-6.257 6.258 3.586 3.586z"/><path d="m28.979 21.464h22.042v5.071h-22.042z" transform="matrix(.707 -.707 .707 .707 -5.255 35.314)"/><path d="m35 41h22v16h-22z"/><path d="m31 39.414c0 3.149-2.254 5.81-5.36 6.327l-8.857 1.477 1.477-8.857c.518-3.105 3.178-5.359 6.326-5.359l2-2h-23.586v30h58v-30.002h-21.586zm-17 18.586h-8v-8h8zm1-11h-10v-2h10zm0-4h-10v-2h10zm0-4h-10v-2h10zm0-4h-10v-2h10zm2 18h10v2h-10zm14 6h-14v-2h14zm0-4h-2v-2h2zm0-4h-14v-2h14zm28 8h-26v-20h26z"/><path d="m41.414 29h19.586v-6h-13.586z"/></svg>