<?xml version="1.0" encoding="iso-8859-1"?>
<!-- Generator: Adobe Illustrator 16.0.0, SVG Export Plug-In . SVG Version: 6.00 Build 0)  -->
<!DOCTYPE svg PUBLIC "-//W3C//DTD SVG 1.1//EN" "http://www.w3.org/Graphics/SVG/1.1/DTD/svg11.dtd">
<svg version="1.1" id="Capa_1" xmlns="http://www.w3.org/2000/svg" xmlns:xlink="http://www.w3.org/1999/xlink" x="0px" y="0px"
	 width="969.933px" height="969.933px" viewBox="0 0 969.933 969.933" style="enable-background:new 0 0 969.933 969.933;fill:white"
	 xml:space="preserve">
<g> 
	<g>
		<path d="M421.732,0.323L186.244,0c-5.528-0.008-10.014,4.472-10.014,10v105.054l255.488,126.492V10.323
			C431.718,4.805,427.25,0.33,421.732,0.323z M293.948,68.319c0,5.523-4.478,10-10,10h-40c-5.523,0-10-4.477-10-10v-8
			c0-5.523,4.477-10,10-10h40c5.523,0,10,4.477,10,10V68.319z M374.002,68.319c0,5.523-4.478,10-10,10h-40c-5.523,0-10-4.477-10-10
			v-8c0-5.523,4.477-10,10-10h40c5.522,0,10,4.477,10,10V68.319z"/>
		<path d="M792.214,0.323L556.726,0c-5.527-0.008-10.014,4.472-10.014,10v105.054l255.488,126.492V10.323
			C802.201,4.805,797.731,0.33,792.214,0.323z M664.429,68.319c0,5.523-4.477,10-10,10h-40c-5.522,0-10-4.477-10-10v-8
			c0-5.523,4.478-10,10-10h40c5.523,0,10,4.477,10,10V68.319z M744.483,68.319c0,5.523-4.477,10-10,10h-40c-5.522,0-10-4.477-10-10
			v-8c0-5.523,4.478-10,10-10h40c5.523,0,10,4.477,10,10V68.319z"/>
		<path d="M136.234,136.212v787.552H74.966c-5.523,0-10,4.478-10,10v26.169c0,5.523,4.477,10,10,10h820c5.523,0,10-4.477,10-10
			v-26.169c0-5.522-4.477-10-10-10h-61.268v-635.57c0-3.802-2.156-7.275-5.563-8.962L521.152,127.25
			c-6.646-3.291-14.437,1.545-14.437,8.962v787.552h-43.498v-635.57c0-3.802-2.156-7.275-5.563-8.962L150.67,127.25
			C144.024,123.959,136.234,128.795,136.234,136.212z M720.567,325.319c0-5.523,4.478-10,10-10h40c5.523,0,10,4.477,10,10v8
			c0,5.523-4.477,10-10,10h-40c-5.522,0-10-4.477-10-10V325.319z M720.567,421.319c0-5.523,4.478-10,10-10h40
			c5.523,0,10,4.477,10,10v8c0,5.522-4.477,10-10,10h-40c-5.522,0-10-4.478-10-10V421.319z M720.567,517.319c0-5.523,4.478-10,10-10
			h40c5.523,0,10,4.477,10,10v8c0,5.522-4.477,10-10,10h-40c-5.522,0-10-4.478-10-10V517.319z M720.567,613.319
			c0-5.523,4.478-10,10-10h40c5.523,0,10,4.477,10,10v8c0,5.522-4.477,10-10,10h-40c-5.522,0-10-4.478-10-10V613.319z
			 M720.567,709.319c0-5.523,4.478-10,10-10h40c5.523,0,10,4.477,10,10v8c0,5.522-4.477,10-10,10h-40c-5.522,0-10-4.478-10-10
			V709.319z M720.567,805.319c0-5.523,4.478-10,10-10h40c5.523,0,10,4.477,10,10v8c0,5.522-4.477,10-10,10h-40
			c-5.522,0-10-4.478-10-10V805.319z M640.208,325.319c0-5.523,4.477-10,10-10h40c5.522,0,10,4.477,10,10v8c0,5.523-4.478,10-10,10
			h-40c-5.523,0-10-4.477-10-10V325.319z M640.208,421.319c0-5.523,4.477-10,10-10h40c5.522,0,10,4.477,10,10v8
			c0,5.522-4.478,10-10,10h-40c-5.523,0-10-4.478-10-10V421.319z M640.208,517.319c0-5.523,4.477-10,10-10h40
			c5.522,0,10,4.477,10,10v8c0,5.522-4.478,10-10,10h-40c-5.523,0-10-4.478-10-10V517.319z M640.208,613.319c0-5.523,4.477-10,10-10
			h40c5.522,0,10,4.477,10,10v8c0,5.522-4.478,10-10,10h-40c-5.523,0-10-4.478-10-10V613.319z M640.208,709.319
			c0-5.523,4.477-10,10-10h40c5.522,0,10,4.477,10,10v8c0,5.522-4.478,10-10,10h-40c-5.523,0-10-4.478-10-10V709.319z
			 M640.208,805.319c0-5.523,4.477-10,10-10h40c5.522,0,10,4.477,10,10v8c0,5.522-4.478,10-10,10h-40c-5.523,0-10-4.478-10-10
			V805.319z M623.238,880.044c0-5.523,4.477-10,10-10h73.939c5.523,0,10,4.477,10,10v43.719h-93.939V880.044z M559.846,325.319
			c0-5.523,4.478-10,10-10h40c5.523,0,10,4.477,10,10v8c0,5.523-4.477,10-10,10h-40c-5.522,0-10-4.477-10-10V325.319z
			 M559.846,421.319c0-5.523,4.478-10,10-10h40c5.523,0,10,4.477,10,10v8c0,5.522-4.477,10-10,10h-40c-5.522,0-10-4.478-10-10
			V421.319z M559.846,517.319c0-5.523,4.478-10,10-10h40c5.523,0,10,4.477,10,10v8c0,5.522-4.477,10-10,10h-40
			c-5.522,0-10-4.478-10-10V517.319z M559.846,613.319c0-5.523,4.478-10,10-10h40c5.523,0,10,4.477,10,10v8c0,5.522-4.477,10-10,10
			h-40c-5.522,0-10-4.478-10-10V613.319z M559.846,709.319c0-5.523,4.478-10,10-10h40c5.523,0,10,4.477,10,10v8
			c0,5.522-4.477,10-10,10h-40c-5.522,0-10-4.478-10-10V709.319z M559.846,805.319c0-5.523,4.478-10,10-10h40
			c5.523,0,10,4.477,10,10v8c0,5.522-4.477,10-10,10h-40c-5.522,0-10-4.478-10-10V805.319z M350.086,325.319c0-5.523,4.477-10,10-10
			h40c5.522,0,10,4.477,10,10v8c0,5.523-4.478,10-10,10h-40c-5.523,0-10-4.477-10-10V325.319z M350.086,421.319
			c0-5.523,4.477-10,10-10h40c5.522,0,10,4.477,10,10v8c0,5.522-4.478,10-10,10h-40c-5.523,0-10-4.478-10-10V421.319z
			 M350.086,517.319c0-5.523,4.477-10,10-10h40c5.522,0,10,4.477,10,10v8c0,5.522-4.478,10-10,10h-40c-5.523,0-10-4.478-10-10
			V517.319z M350.086,613.319c0-5.523,4.477-10,10-10h40c5.522,0,10,4.477,10,10v8c0,5.522-4.478,10-10,10h-40
			c-5.523,0-10-4.478-10-10V613.319z M350.086,709.319c0-5.523,4.477-10,10-10h40c5.522,0,10,4.477,10,10v8c0,5.522-4.478,10-10,10
			h-40c-5.523,0-10-4.478-10-10V709.319z M350.086,805.319c0-5.523,4.477-10,10-10h40c5.522,0,10,4.477,10,10v8
			c0,5.522-4.478,10-10,10h-40c-5.523,0-10-4.478-10-10V805.319z M269.725,325.319c0-5.523,4.477-10,10-10h40
			c5.523,0,10,4.477,10,10v8c0,5.523-4.477,10-10,10h-40c-5.523,0-10-4.477-10-10V325.319z M269.725,421.319c0-5.523,4.477-10,10-10
			h40c5.523,0,10,4.477,10,10v8c0,5.522-4.477,10-10,10h-40c-5.523,0-10-4.478-10-10V421.319z M269.725,517.319
			c0-5.523,4.477-10,10-10h40c5.523,0,10,4.477,10,10v8c0,5.522-4.477,10-10,10h-40c-5.523,0-10-4.478-10-10V517.319z
			 M269.725,613.319c0-5.523,4.477-10,10-10h40c5.523,0,10,4.477,10,10v8c0,5.522-4.477,10-10,10h-40c-5.523,0-10-4.478-10-10
			V613.319z M269.725,709.319c0-5.523,4.477-10,10-10h40c5.523,0,10,4.477,10,10v8c0,5.522-4.477,10-10,10h-40
			c-5.523,0-10-4.478-10-10V709.319z M269.725,805.319c0-5.523,4.477-10,10-10h40c5.523,0,10,4.477,10,10v8c0,5.522-4.477,10-10,10
			h-40c-5.523,0-10-4.478-10-10V805.319z M252.755,880.044c0-5.523,4.477-10,10-10h73.939c5.523,0,10,4.477,10,10v43.719h-93.939
			V880.044z M189.365,325.319c0-5.523,4.477-10,10-10h40c5.523,0,10,4.477,10,10v8c0,5.523-4.477,10-10,10h-40
			c-5.523,0-10-4.477-10-10V325.319L189.365,325.319z M189.365,421.319c0-5.523,4.477-10,10-10h40c5.523,0,10,4.477,10,10v8
			c0,5.522-4.477,10-10,10h-40c-5.523,0-10-4.478-10-10V421.319L189.365,421.319z M189.365,517.319c0-5.523,4.477-10,10-10h40
			c5.523,0,10,4.477,10,10v8c0,5.522-4.477,10-10,10h-40c-5.523,0-10-4.478-10-10V517.319L189.365,517.319z M189.365,613.319
			c0-5.523,4.477-10,10-10h40c5.523,0,10,4.477,10,10v8c0,5.522-4.477,10-10,10h-40c-5.523,0-10-4.478-10-10V613.319
			L189.365,613.319z M189.365,709.319c0-5.523,4.477-10,10-10h40c5.523,0,10,4.477,10,10v8c0,5.522-4.477,10-10,10h-40
			c-5.523,0-10-4.478-10-10V709.319L189.365,709.319z M189.365,805.319c0-5.523,4.477-10,10-10h40c5.523,0,10,4.477,10,10v8
			c0,5.522-4.477,10-10,10h-40c-5.523,0-10-4.478-10-10V805.319L189.365,805.319z"/>
	</g>
</g>
<g>
</g>
<g>
</g>
<g>
</g>
<g>
</g>
<g>
</g>
<g>
</g>
<g>
</g>
<g>
</g>
<g>
</g>
<g>
</g>
<g>
</g>
<g>
</g>
<g>
</g>
<g>
</g>
<g>
</g>
</svg>
